<?xml version="1.0" encoding="UTF-8"?>
<svg id="Layer_1" xmlns="http://www.w3.org/2000/svg" version="1.1" viewBox="0 0 1400 350">
  <!-- Generator: Adobe Illustrator 29.2.1, SVG Export Plug-In . SVG Version: 2.1.0 Build 116)  -->
  <defs>
    <style>
      .st0, .st1, .st2 {
        font-family: SDDystopianDemoRegular, SDDystopianDemo;
      }

      .st0, .st2 {
        fill: none;
        font-size: 120px;
        stroke: #ffd600;
      }

      .st3 {
        fill: #fff;
      }

      .st4 {
        fill: #282325;
      }

      .st1 {
        font-size: 150px;
      }

      .st1, .st5 {
        fill: #ffd600;
      }

      .st2 {
        stroke-miterlimit: 10;
      }
    </style>
  </defs>
  <g>
    <path class="st5" d="M499.45,5h152.71v6.62s-18.76,18.76-18.76,18.76h-148.06v-11.27s14.11-14.11,14.11-14.11ZM651.32,5.85h-151.51s-13.62,13.62-13.62,13.62v10.07s146.86,0,146.86,0l18.27-18.27v-5.42Z"/>
    <g>
      <polygon class="st5" points="360.07 203.69 621.52 203.69 684.98 140.23 584.67 39.91 508.75 39.91 508.75 52.84 528.19 72.29 571.26 72.29 639.2 140.23 608.11 171.31 339.79 171.31 339.79 183.41 360.07 203.69"/>
      <polygon class="st5" points="193.48 280.59 193.48 212.28 257.96 212.28 368.92 101.32 456.93 101.32 481.95 76.3 481.95 68.94 355.51 68.94 244.55 179.9 161.11 179.9 161.11 301.01 173.06 301.01 193.48 280.59"/>
      <polygon class="st5" points="166.56 50.07 481.95 50.07 481.95 42.55 457.1 17.69 153.17 17.69 153.17 36.68 166.56 50.07"/>
      <path class="st5" d="M192.78,68.38h99.32v12.43s-21.06,21.06-21.06,21.06h-64.39s-110.97,110.97-110.97,110.97H31.19s-16.96-16.96-16.96-16.96v-16.54h67.58s110.96-110.97,110.96-110.97ZM290.98,69.5h-97.74s-110.96,110.97-110.96,110.97H15.35s0,14.96,0,14.96l16.3,16.3h63.57s110.97-110.97,110.97-110.97h64.39s20.41-20.41,20.41-20.41v-10.85Z"/>
      <polygon class="st5" points="40.82 94.51 94.53 94.51 143.71 45.33 135.72 37.33 105.92 37.33 81.12 62.13 21.74 62.13 21.74 75.43 40.82 94.51"/>
      <path class="st5" d="M398.78,116.71h131.38v14.77s-21.68,21.68-21.68,21.68h-133.15v-13.01s23.45-23.45,23.45-23.45ZM529.05,117.83h-129.81s-22.8,22.8-22.8,22.8v11.43s131.57,0,131.57,0l21.03-21.03v-13.19Z"/>
    </g>
  </g>
  <g>
    <path class="st4" d="M1195.73,2.07h158.22v6.86l-19.44,19.44h-153.41v-11.68l14.62-14.62ZM1353.08,2.95h-156.98l-14.11,14.11v10.44h152.17l18.93-18.93V2.95Z"/>
    <g>
      <polygon class="st4" points="1051.32 207.93 1322.21 207.93 1387.96 142.18 1284.02 38.24 1205.36 38.24 1205.36 51.64 1225.51 71.79 1270.13 71.79 1340.52 142.18 1308.31 174.39 1030.31 174.39 1030.31 186.92 1051.32 207.93"/>
      <polygon class="st4" points="878.72 287.62 878.72 216.84 945.52 216.84 1060.49 101.87 1151.68 101.87 1177.6 75.94 1177.6 68.32 1046.59 68.32 931.62 183.29 845.17 183.29 845.17 308.77 857.56 308.77 878.72 287.62"/>
      <polygon class="st4" points="850.82 48.77 1177.6 48.77 1177.6 40.97 1151.85 15.22 836.95 15.22 836.95 34.89 850.82 48.77"/>
      <path class="st4" d="M877.99,67.74h102.91v12.88l-21.82,21.82h-66.71l-114.97,114.97h-66.82l-17.57-17.57v-17.13h70.02l114.97-114.97ZM979.74,68.9h-101.27l-114.97,114.97h-69.34v15.5l16.89,16.89h65.86l114.97-114.97h66.71l21.15-21.15v-11.24Z"/>
      <polygon class="st4" points="720.54 94.81 776.19 94.81 827.15 43.86 818.87 35.57 787.99 35.57 762.3 61.27 700.77 61.27 700.77 75.05 720.54 94.81"/>
      <path class="st4" d="M1091.43,117.82h136.13v15.3l-22.47,22.47h-137.96v-13.47l24.3-24.3ZM1226.4,118.98h-134.49l-23.62,23.62v11.84h136.32l21.79-21.79v-13.67Z"/>
    </g>
  </g>
  <text class="st1" transform="translate(821.32 252.12)"><tspan x="0" y="0">MAHDI</tspan></text>
  <g>
    <text class="st2" transform="translate(769.32 146.46)"><tspan x="0" y="0">Sergean</tspan></text>
    <text class="st0" transform="translate(769.32 146.46)"><tspan x="0" y="0">Sergean</tspan></text>
  </g>
  <g>
    <polygon class="st3" points="1129.96 328.14 1240.6 328.14 1240.59 307.81 1216.85 286.73 1101.98 286.73 1101.99 303.3 1129.96 328.14"/>
    <g>
      <path class="st3" d="M839.62,55.63h-18.58l49.14-43.64h18.58l-49.14,43.64ZM827.12,53.39h11.46l44.1-39.17h-11.46l-44.1,39.17Z"/>
      <path class="st3" d="M786.84,55.63h-55.46V11.98h104.6l-49.14,43.64ZM733.9,53.39h51.89l44.1-39.17h-96v39.17Z"/>
      <path class="st3" d="M813.23,55.63h-18.58l49.14-43.64h18.59l-49.14,43.64ZM800.73,53.39h11.46l44.1-39.17h-11.46l-44.1,39.17Z"/>
      <path class="st3" d="M866.01,55.63h-18.58l49.14-43.64h18.58l-49.14,43.64ZM853.51,53.39h11.46l44.1-39.17h-11.46l-44.1,39.17Z"/>
      <path class="st3" d="M1019.66,55.63h-145.84l49.14-43.64h66.15l30.55,27.13v16.51ZM879.9,53.39h137.24v-13.35l-29.07-25.82h-64.06l-44.1,39.17Z"/>
    </g>
    <path class="st3" d="M692,93.71l13.76,12.22v3.16l-13.76-12.22v-3.16ZM692,105.61l13.76,12.22v-3.17l-13.76-12.22v3.17ZM692,114.36l13.76,12.22v-3.16l-13.76-12.22v3.16ZM692,123.1l13.76,12.22v-3.17l-13.76-12.22v3.16ZM692,131.84l13.76,12.22v-3.17l-13.76-12.22v3.17ZM692,140.59l13.76,12.22v-3.17l-13.76-12.22v3.16ZM692,149.33l13.76,12.22v-3.17l-13.76-12.22v3.17ZM692,158.07l13.76,12.22v-3.16l-13.76-12.22v3.16ZM692,166.81l13.76,12.22v-3.17l-13.76-12.22v3.16ZM692,175.56l13.76,12.22v-3.16l-13.76-12.22v3.17ZM692,184.3l13.76,12.22v-3.17l-13.76-12.22v3.16ZM692,193.04l13.76,12.22v-3.17l-13.76-12.22v3.17ZM692,201.79l13.76,12.22v-3.17l-13.76-12.22v3.16ZM692,210.53l13.76,12.22v-3.17l-13.76-12.22v3.17ZM692,219.27l13.76,12.22v-3.16l-13.76-12.22v3.16ZM692,228.01l13.76,12.22v-3.17l-13.76-12.22v3.16ZM692,236.76l13.76,12.22v-3.16l-13.76-12.22v3.17Z"/>
    <g>
      <polygon class="st3" points="1000.15 307.19 975.63 307.19 975.63 285.61 978.15 285.61 978.15 304.95 1000.15 304.95 1000.15 307.19"/>
      <polygon class="st3" points="972.59 307.19 948.07 307.19 948.07 304.95 970.07 304.95 970.07 285.61 972.59 285.61 972.59 307.19"/>
    </g>
    <g>
      <polygon class="st3" points="1286.13 30.48 1261.61 30.48 1261.61 8.91 1264.13 8.91 1264.13 28.24 1286.13 28.24 1286.13 30.48"/>
      <polygon class="st3" points="1258.57 30.48 1234.05 30.48 1234.05 28.24 1256.05 28.24 1256.05 8.91 1258.57 8.91 1258.57 30.48"/>
    </g>
    <g>
      <polygon class="st3" points="1340.48 226.34 1337.96 226.34 1337.96 204.56 1362.25 204.56 1362.25 206.8 1340.48 206.8 1340.48 226.34"/>
      <polygon class="st3" points="1362.25 201.86 1337.96 201.86 1337.96 180.08 1340.48 180.08 1340.48 199.62 1362.25 199.62 1362.25 201.86"/>
    </g>
    <g>
      <rect class="st3" x="1007.76" y="285.61" width="326.25" height="2.24"/>
      <path class="st3" d="M1049.76,301.67c-9.28,0-16.83-6.7-16.83-14.94s7.55-14.94,16.83-14.94,16.83,6.7,16.83,14.94-7.55,14.94-16.83,14.94ZM1049.76,273.41c-8.27,0-14.99,5.97-14.99,13.31s6.72,13.31,14.99,13.31,14.99-5.97,14.99-13.31-6.72-13.31-14.99-13.31Z"/>
      <path class="st3" d="M1276,301.67c-9.28,0-16.83-6.7-16.83-14.94s7.55-14.94,16.83-14.94,16.83,6.7,16.83,14.94-7.55,14.94-16.83,14.94ZM1276,273.41c-8.27,0-14.99,5.97-14.99,13.31s6.72,13.31,14.99,13.31,14.99-5.97,14.99-13.31-6.72-13.31-14.99-13.31Z"/>
    </g>
    <g>
      <path class="st3" d="M932.34,287.45v16.78h-11.85v-16.78h11.85M934.57,285.46h-16.33v20.76h16.33v-20.76h0Z"/>
      <rect class="st3" x="939.12" y="285.46" width="2.68" height="20.76"/>
    </g>
    <g>
      <path class="st3" d="M1261.02,330.23v16.78h-11.85v-16.78h11.85M1263.26,328.24h-16.33v20.76h16.33v-20.76h0Z"/>
      <rect class="st3" x="1267.81" y="328.24" width="2.68" height="20.76"/>
    </g>
    <rect class="st3" x="731.78" y="274.79" width="181.44" height="2.24"/>
    <rect class="st3" x="791.84" y="285.61" width="121.38" height="2.24"/>
    <polygon class="st3" points="1331.76 201.91 1329.24 201.91 1329.24 39.59 1236.41 39.59 1218.34 55.64 725.69 55.64 725.69 40.81 728.21 40.81 728.21 53.4 1217.3 53.4 1235.37 37.35 1331.76 37.35 1331.76 201.91"/>
  </g>
  <g>
    <polygon class="st3" points="34.87 289.32 34.87 296.8 71.07 333 78.55 333 34.87 289.32"/>
    <polygon class="st3" points="34.87 270.51 34.87 277.98 89.89 333 97.36 333 34.87 270.51"/>
    <polygon class="st3" points="34.87 308.14 34.87 315.61 52.26 333 59.73 333 34.87 308.14"/>
    <polygon class="st3" points="34.87 251.7 34.87 259.17 108.7 333 116.17 333 34.87 251.7"/>
    <polygon class="st3" points="150.06 223.85 150.06 217.8 144.02 217.8 150.06 223.85"/>
    <polygon class="st3" points="34.87 326.95 34.87 333 40.92 333 34.87 326.95"/>
    <polygon class="st3" points="38.61 217.8 34.87 217.8 34.87 221.54 146.33 333 150.06 333 150.06 329.26 38.61 217.8"/>
    <polygon class="st3" points="95.05 217.8 87.57 217.8 150.06 280.29 150.06 272.82 95.05 217.8"/>
    <polygon class="st3" points="113.86 217.8 106.39 217.8 150.06 261.48 150.06 254.01 113.86 217.8"/>
    <polygon class="st3" points="34.87 232.88 34.87 240.36 127.51 333 134.99 333 34.87 232.88"/>
    <polygon class="st3" points="132.68 217.8 125.2 217.8 150.06 242.67 150.06 235.19 132.68 217.8"/>
    <polygon class="st3" points="57.42 217.8 49.95 217.8 150.06 317.92 150.06 310.45 57.42 217.8"/>
    <polygon class="st3" points="76.23 217.8 68.76 217.8 150.06 299.11 150.06 291.64 76.23 217.8"/>
  </g>
  <g>
    <polygon class="st5" points="589.17 350 591.69 350 591.69 291.67 555.89 255.86 555.89 259.43 589.17 292.71 589.17 350"/>
    <polygon class="st5" points="533.19 255.5 533.19 271.19 555.89 293.9 555.89 259.43 522.86 226.4 508.4 226.4 508.4 230.71 533.19 255.5"/>
    <polygon class="st5" points="555.89 310.29 555.89 301.84 533.19 279.14 533.19 287.59 555.89 310.29"/>
    <polygon class="st5" points="536.19 226.4 526.43 226.4 555.89 255.86 555.89 246.1 536.19 226.4"/>
    <rect class="st5" x="612" y="226.4" width="11" height="123.6"/>
    <polygon class="st5" points="503.78 301.95 503.78 350 506.3 350 506.3 300.91 499.4 294.01 499.4 297.58 503.78 301.95"/>
    <polygon class="st5" points="555.89 326.69 555.89 318.23 533.19 295.53 533.19 303.99 555.89 326.69"/>
    <rect class="st5" x="603.82" y="226.4" width="2.52" height="123.6"/>
    <polygon class="st5" points="555.89 350 555.89 334.63 533.19 311.93 533.19 350 555.89 350"/>
  </g>
</svg>