<?xml version="1.0" encoding="UTF-8"?>
<svg id="Layer_1" xmlns="http://www.w3.org/2000/svg" version="1.1" viewBox="0 0 256 288">
  <!-- Generator: Adobe Illustrator 29.7.1, SVG Export Plug-In . SVG Version: 2.1.1 Build 8)  -->
  <defs>
    <style>
      .st0 {
        fill: #ff9100;
      }

      .st1 {
        fill: #fff;
      }

      .st2 {
        fill: #ffb100;
      }

      .st3 {
        fill: #ffa100;
      }
    </style>
  </defs>
  <path class="st2" d="M255.99,84.59c0-4.84-1.04-9.11-3.13-12.78-2.05-3.61-5.13-6.63-9.26-9.02-34.08-19.65-68.19-39.24-102.26-58.91-9.18-5.3-18.09-5.11-27.21.27C100.56,12.14,32.64,51.05,12.4,62.78,4.07,67.6.01,74.98.01,84.58c-.01,39.52,0,79.04-.01,118.56,0,4.73.99,8.92,2.99,12.54,2.06,3.72,5.18,6.82,9.4,9.27,20.24,11.72,88.16,50.63,101.73,58.63,9.12,5.38,18.03,5.58,27.21.27,34.07-19.67,68.19-39.26,102.27-58.91,4.22-2.44,7.35-5.55,9.4-9.27,2-3.61,2.99-7.81,2.99-12.54,0,0,0-79.02-.01-118.54"/>
  <path class="st0" d="M128.39,143.48L2.99,215.68c2.06,3.72,5.18,6.82,9.4,9.27,20.24,11.72,88.16,50.63,101.73,58.63,9.12,5.38,18.03,5.58,27.21.27,34.07-19.67,68.19-39.26,102.27-58.91,4.22-2.44,7.35-5.55,9.4-9.27l-124.62-72.19"/>
  <path class="st0" d="M91.25,164.86c7.3,12.74,21.01,21.33,36.75,21.33s29.63-8.7,36.89-21.58l-36.5-21.14-37.14,21.39"/>
  <path class="st3" d="M255.99,84.59c0-4.84-1.04-9.11-3.13-12.78l-124.46,71.67,124.62,72.19c2-3.61,2.99-7.81,2.99-12.54,0,0,0-79.02-.01-118.54"/>
  <path class="st1" d="M249.13,148.64h-9.74v9.74h-9.74v-9.74h-9.74v-9.74h9.74v-9.74h9.74v9.74h9.74v9.74h0ZM128,58.85c31.13,0,58.36,16.74,73.17,41.71l.44.76-37,21.31c-7.33-12.61-20.98-21.09-36.61-21.09-23.38,0-42.33,18.95-42.33,42.33,0,7.37,1.92,14.61,5.58,21,7.3,12.74,21.01,21.33,36.75,21.33s29.32-8.51,36.65-21.15l.24-.42,36.95,21.41c-14.65,25.6-42.23,42.85-73.83,42.85s-59.08-17.18-73.75-42.71c-7.16-12.46-11.26-26.9-11.26-42.31,0-46.95,38.06-85.01,85.01-85.01h0ZM203.86,129.16v9.74h9.74v9.74h-9.74v9.74h-9.74v-9.74h-9.74v-9.74h9.74v-9.74h9.74Z"/>
</svg>