<?xml version="1.0" encoding="UTF-8"?>
<svg id="Layer_1" xmlns="http://www.w3.org/2000/svg" version="1.1" viewBox="0 0 1000 1000">
  <!-- Generator: Adobe Illustrator 29.7.1, SVG Export Plug-In . SVG Version: 2.1.1 Build 8)  -->
  <defs>
    <style>
      .st0 {
        fill: #fff;
      }

      .st1 {
        fill: #ffa100;
      }
    </style>
  </defs>
  <path class="st1" d="M0,0h840c88.37,0,160,71.63,160,160v680c0,88.37-71.63,160-160,160H160C71.63,1000,0,928.37,0,840V0Z"/>
  <path class="st0" d="M816.54,919.9c-32.39,0-57.16-9.42-74.5-28.35-17.15-19.03-26.08-46.18-26.88-81.64h69.8c.4,31.36,11.42,47.08,33.08,47.08,11.04,0,18.86-3.5,23.37-10.42,4.41-6.9,6.72-17.93,6.72-33.05,0-12.02-3.01-22.04-8.83-29.95-7.9-9.41-18.04-16.68-29.48-21.14l-25.87-12.43c-23.06-11.02-39.81-24.04-50.14-39.27-10.03-15.13-15.04-36.36-15.04-63.5,0-30.36,8.83-55,26.37-73.94,18.05-18.93,42.62-28.34,74-28.34s53.76,9.31,70.3,27.84c16.85,18.64,25.67,45.28,26.38,80.14h-67.19c.4-11.4-1.9-22.72-6.72-33.06-3.8-7.6-11.23-11.41-22.26-11.41-19.65,0-29.48,11.71-29.48,35.05,0,11.83,2.4,21.04,7.22,28.05,6.94,7.76,15.64,13.74,25.37,17.44l24.77,10.92c25.57,11.72,44.02,26.05,55.35,43.38,11.43,17.23,17.05,40.27,17.05,69.12,0,34.56-9.03,61.1-27.38,79.63-18.25,18.53-43.62,27.85-76,27.85h-.01ZM591.12,919.9c-32.4,0-57.16-9.42-74.51-28.35-17.15-19.03-26.07-46.18-26.87-81.64h69.79c.4,31.36,11.43,47.08,33.1,47.08,11.02,0,18.84-3.5,23.25-10.42,4.52-6.9,6.72-17.93,6.72-33.05,0-12.02-2.9-22.04-8.72-29.95-7.9-9.41-18.04-16.68-29.48-21.14l-25.87-12.43c-23.07-11.02-39.81-24.04-50.14-39.27-10.03-15.13-15.04-36.36-15.04-63.5,0-30.36,8.82-55,26.37-73.94,18.05-18.93,42.62-28.34,74-28.34s53.75,9.31,70.2,27.84c17.05,18.64,25.77,45.28,26.47,80.14h-67.18c.4-11.4-1.9-22.72-6.72-33.06-3.81-7.6-11.23-11.41-22.26-11.41-19.66,0-29.49,11.71-29.49,35.05,0,11.83,2.41,21.04,7.22,28.05,6.94,7.76,15.64,13.74,25.37,17.44l24.77,10.92c25.57,11.72,44.02,26.05,55.36,43.38,11.33,17.23,17.04,40.27,17.04,69.12,0,34.56-9.12,61.1-27.37,79.63s-43.62,27.85-76.01,27.85h0ZM356.37,919.9c-31.7,0-56.86-8.62-75.51-25.85-18.65-17.12-27.88-42.87-27.88-76.93v-168.29c0-33.85,9.83-59.5,29.48-77.13,19.96-17.43,46.13-26.24,78.52-26.24s56.15,9.01,74.5,26.84c18.56,17.93,27.88,44.58,27.88,80.14v13.32h-73.9v-12.92c0-13.72-3.01-23.84-8.83-30.45-5.16-6.7-13.21-10.54-21.66-10.32-12.03,0-20.55,4.1-25.37,12.42-5.13,11.51-7.43,24.08-6.72,36.66v146.26c0,30.55,10.74,46.08,32.1,46.38,10.02,0,17.54-3.61,22.76-10.82,5.67-9.11,8.37-19.75,7.72-30.46v-10.91h73.9v11.42c0,23.74-4.61,43.57-13.94,59.4-8.87,15.45-22.18,27.87-38.2,35.66-17.11,8.17-35.89,12.21-54.85,11.82h0Z"/>
</svg>