<?xml version="1.0" encoding="UTF-8"?>
<svg id="Layer_1" xmlns="http://www.w3.org/2000/svg" version="1.1" xmlns:xlink="http://www.w3.org/1999/xlink" viewBox="0 0 54 80">
  <!-- Generator: Adobe Illustrator 29.7.1, SVG Export Plug-In . SVG Version: 2.1.1 Build 8)  -->
  <defs>
    <style>
      .st0 {
        fill: #ff9100;
      }

      .st1 {
        fill: #ffb100;
      }

      .st2 {
        fill: none;
      }

      .st3 {
        fill: #ffa100;
      }

      .st4 {
        fill: #ffc100;
      }

      .st5 {
        clip-path: url(#clippath);
      }
    </style>
    <clipPath id="clippath">
      <rect class="st2" width="53.33" height="80"/>
    </clipPath>
  </defs>
  <g class="st5">
    <g>
      <path class="st4" d="M13.33,80c7.36,0,13.33-5.97,13.33-13.33v-13.33h-13.33c-7.36,0-13.33,5.97-13.33,13.33s5.97,13.33,13.33,13.33Z"/>
      <path class="st0" d="M0,40c0-7.36,5.97-13.33,13.33-13.33h13.33v26.67h-13.33c-7.36,0-13.33-5.97-13.33-13.33Z"/>
      <path class="st3" d="M0,13.33C0,5.97,5.97,0,13.33,0h13.33v26.67h-13.33C5.97,26.67,0,20.69,0,13.33Z"/>
      <path class="st1" d="M26.67,0h13.33c7.36,0,13.33,5.97,13.33,13.33s-5.97,13.33-13.33,13.33h-13.33V0Z"/>
      <path class="st3" d="M53.33,40c0,7.36-5.97,13.33-13.33,13.33s-13.33-5.97-13.33-13.33,5.97-13.33,13.33-13.33,13.33,5.97,13.33,13.33Z"/>
    </g>
  </g>
</svg>