<?xml version="1.0" encoding="UTF-8"?>
<svg id="Layer_1" xmlns="http://www.w3.org/2000/svg" version="1.1" viewBox="0 0 256 256">
  <!-- Generator: Adobe Illustrator 29.7.1, SVG Export Plug-In . SVG Version: 2.1.1 Build 8)  -->
  <defs>
    <style>
      .st0 {
        fill: #ffa100;
      }
    </style>
  </defs>
  <path class="st0" d="M251.17,116.6L139.4,4.82c-6.44-6.43-16.87-6.43-23.31,0l-23.21,23.2,29.44,29.45c10.23-3.49,21.35,1.97,24.84,12.2,1.41,4.14,1.4,8.63-.04,12.76l28.37,28.38c10.24-3.52,21.4,1.93,24.92,12.17,3.52,10.24-1.93,21.4-12.17,24.92s-21.4-1.93-24.92-12.17c-1.55-4.52-1.4-9.45.42-13.86l-26.46-26.47v69.64c9.71,4.8,13.69,16.57,8.89,26.28s-16.57,13.69-26.28,8.89c-9.71-4.8-13.69-16.57-8.89-26.28,2.12-4.29,5.73-7.65,10.15-9.46v-70.27c-10.02-4.11-14.82-15.56-10.71-25.58.02-.05.04-.1.06-.15l-29.04-29.03L4.83,116.08c-6.44,6.44-6.44,16.88,0,23.32l111.77,111.77c6.44,6.44,16.88,6.44,23.32,0l111.25-111.25c6.44-6.44,6.44-16.89,0-23.33"/>
</svg>