<?xml version="1.0" encoding="UTF-8"?>
<svg id="Layer_1" xmlns="http://www.w3.org/2000/svg" version="1.1" viewBox="0 0 120 258">
  <!-- Generator: Adobe Illustrator 29.7.1, SVG Export Plug-In . SVG Version: 2.1.1 Build 8)  -->
  <defs>
    <style>
      .st0 {
        fill: #ffa100;
      }
    </style>
  </defs>
  <path class="st0" d="M83.01,28.76C72.13,15.91,62.77,2.86,60.85.15c-.19-.19-.5-.2-.69-.02,0,0-.01,0-.02.02-1.91,2.71-11.28,15.76-22.16,28.6-93.35,118.54,14.7,198.53,14.7,198.53l.91.6c.81,12.35,2.82,30.11,2.82,30.11h8.06s2.01-17.67,2.82-30.11l.91-.7c.1,0,108.16-79.89,14.8-198.43h0ZM60.45,225.48s-4.83-4.12-6.14-6.22v-.2l5.84-129.08c0-.4.6-.4.6,0l5.84,129.08v.2c-1.31,2.11-6.14,6.22-6.14,6.22Z"/>
</svg>