<?xml version="1.0" encoding="UTF-8"?>
<svg id="Layer_1" xmlns="http://www.w3.org/2000/svg" version="1.1" xmlns:xlink="http://www.w3.org/1999/xlink" viewBox="0 0 256 292">
  <!-- Generator: Adobe Illustrator 29.7.1, SVG Export Plug-In . SVG Version: 2.1.1 Build 8)  -->
  <defs>
    <style>
      .st0 {
        mask: url(#mask-1);
      }

      .st1 {
        fill: #fff;
      }

      .st2 {
        mask: url(#mask);
      }

      .st3 {
        fill: #ffa100;
      }

      .st4 {
        fill: #ff9700;
      }

      .st5 {
        fill: #ffc100;
      }
    </style>
    <mask id="mask" x="0" y="0" width="256" height="292.05" maskUnits="userSpaceOnUse">
      <g id="nodejs__d">
        <path id="nodejs__b" class="st1" d="M134.92,1.83c-4.34-2.44-9.5-2.44-13.85,0L6.79,67.8c-4.34,2.44-6.79,7.06-6.79,11.94v132.21c0,4.89,2.71,9.5,6.79,11.95l114.29,65.97c4.34,2.44,9.5,2.44,13.85,0l114.29-65.97c4.34-2.44,6.79-7.06,6.79-11.94V79.75c0-4.89-2.71-9.5-6.79-11.94L134.92,1.83Z"/>
      </g>
    </mask>
    <mask id="mask-1" x="0" y="-.04" width="256.54" height="291.81" maskUnits="userSpaceOnUse">
      <g id="nodejs__g">
        <path id="nodejs__e" class="st1" d="M134.92,1.83c-4.34-2.44-9.5-2.44-13.85,0L6.79,67.8c-4.34,2.44-6.79,7.06-6.79,11.94v132.21c0,4.89,2.71,9.5,6.79,11.95l114.29,65.97c4.34,2.44,9.5,2.44,13.85,0l114.29-65.97c4.34-2.44,6.79-7.06,6.79-11.94V79.75c0-4.89-2.71-9.5-6.79-11.94L134.92,1.83Z"/>
      </g>
    </mask>
  </defs>
  <path class="st3" d="M134.92,1.83c-4.34-2.44-9.5-2.44-13.85,0L6.79,67.8c-4.34,2.44-6.79,7.06-6.79,11.94v132.21c0,4.89,2.71,9.5,6.79,11.95l114.29,65.97c4.34,2.44,9.5,2.44,13.85,0l114.29-65.97c4.34-2.44,6.79-7.06,6.79-11.94V79.75c0-4.89-2.71-9.5-6.79-11.94L134.92,1.83Z"/>
  <g class="st2">
    <path class="st4" d="M249.49,67.8L134.65,1.83c-1.09-.54-2.44-1.09-3.53-1.36L2.44,220.91c1.09,1.36,2.44,2.44,3.8,3.26l114.83,65.97c3.26,1.9,7.06,2.44,10.59,1.36l120.81-220.98c-.82-1.09-1.9-1.9-2.99-2.71h0Z"/>
  </g>
  <g class="st0">
    <path class="st5" d="M249.76,223.9c3.26-1.9,5.7-5.16,6.79-8.69L130.58.2c-3.26-.54-6.79-.27-9.77,1.63L6.79,67.53l122.98,224.24c1.63-.27,3.53-.82,5.16-1.63l114.83-66.24h0Z"/>
  </g>
</svg>