<?xml version="1.0" encoding="UTF-8"?>
<svg id="Layer_1" xmlns="http://www.w3.org/2000/svg" version="1.1" viewBox="0 0 569 512">
  <!-- Generator: Adobe Illustrator 29.7.1, SVG Export Plug-In . SVG Version: 2.1.1 Build 8)  -->
  <defs>
    <style>
      .st0 {
        fill: #ffa100;
      }
    </style>
  </defs>
  <path id="react_light__Path" class="st0" d="M285.5,201c-30.1,0-54.5,24.4-54.5,54.5s24.4,54.5,54.5,54.5,54.5-24.4,54.5-54.5-24.4-54.5-54.5-54.5"/>
  <path id="react_light__Shape" class="st0" d="M568.96,255.99c0-42.79-39.62-80.31-102.71-105.01.84-5.56,1.61-11.06,2.15-16.46,6.22-61.48-8.59-105.85-41.69-124.97-37.03-21.38-89.34-5.86-142.23,36.46C231.59,3.69,179.28-11.83,142.25,9.55c-33.1,19.11-47.91,63.49-41.69,124.97.54,5.4,1.28,10.92,2.15,16.5-5.26,2.01-10.42,4.14-15.38,6.36C31.01,182.71,0,217.77,0,255.99c0,42.79,39.62,80.31,102.71,105.01-.86,5.56-1.61,11.06-2.15,16.46-6.22,61.48,8.59,105.85,41.69,124.97,11.38,6.45,24.27,9.75,37.35,9.56,31.35,0,67.96-16.5,104.88-46.02,36.89,29.51,73.52,46.02,104.92,46.02,13.08.19,25.97-3.11,37.35-9.56,33.1-19.11,47.91-63.49,41.69-124.97-.54-5.4-1.3-10.9-2.15-16.46,63.09-24.66,102.71-62.24,102.71-105.01M389.16,27.1c8.41-.2,16.72,1.83,24.09,5.9,22.98,13.27,33.3,49.27,28.28,98.76-.34,3.37-.74,6.79-1.22,10.22-26.23-7.9-53.09-13.54-80.29-16.85-16.49-21.92-34.82-42.39-54.8-61.18,31.37-24.25,60.82-36.86,83.92-36.86M378.36,310.21c-10.15,17.63-21.21,34.71-33.12,51.2-20.19,2.07-40.48,3.11-60.78,3.09-20.29.01-40.57-1.02-60.76-3.09-11.88-16.49-22.9-33.58-33.02-51.2-10.15-17.58-19.38-35.67-27.64-54.21,8.26-18.54,17.49-36.63,27.64-54.21,10.1-17.55,21.09-34.58,32.92-51.02,20.22-2.13,40.54-3.19,60.88-3.17,20.29-.01,40.57,1.02,60.76,3.09,11.87,16.46,22.9,33.52,33.04,51.1,10.14,17.58,19.37,35.68,27.64,54.21-8.27,18.54-17.5,36.63-27.64,54.21M419.72,290.13c6.37,17.38,11.6,35.15,15.66,53.21-17.6,5.49-35.54,9.82-53.71,12.95,6.9-10.41,13.6-21.25,20.07-32.51,6.4-11.12,12.4-22.35,18.06-33.57M246.36,390.38c12.48.76,25.23,1.2,38.14,1.2s25.73-.44,38.24-1.2c-11.86,14.21-24.63,27.62-38.24,40.16-13.58-12.53-26.32-25.95-38.14-40.16ZM187.31,356.24c-18.17-3.12-36.12-7.43-53.73-12.91,4.04-18.03,9.25-35.78,15.6-53.13,5.58,11.22,11.56,22.45,18.06,33.57,6.5,11.12,13.23,22.09,20.07,32.51M149.17,221.76c-6.32-17.29-11.52-34.97-15.56-52.93,17.57-5.48,35.47-9.82,53.59-12.99-6.86,10.38-13.59,21.14-20.07,32.37-6.48,11.22-12.4,22.31-18.06,33.55M322.62,121.59c-12.48-.76-25.23-1.2-38.24-1.2s-25.61.4-38.14,1.2c11.82-14.21,24.56-27.62,38.14-40.16,13.61,12.53,26.39,25.95,38.24,40.16ZM401.7,188.21c-6.5-11.27-13.23-22.11-20.17-32.53,18.22,3.14,36.21,7.47,53.85,12.97-4.05,18.03-9.26,35.77-15.6,53.13-5.58-11.22-11.58-22.45-18.06-33.55M127.52,131.79c-5.08-49.47,5.3-85.49,28.26-98.76,7.37-4.06,15.68-6.1,24.09-5.9,23.1,0,52.55,12.61,83.92,36.86-19.99,18.8-38.34,39.28-54.84,61.22-27.19,3.32-54.05,8.94-80.29,16.79-.46-3.43-.88-6.83-1.2-10.2M98.45,182.11c3.09-1.34,6.24-2.68,9.45-4.02,6.31,26.64,14.87,52.71,25.59,77.9-10.74,25.25-19.31,51.36-25.61,78.06-51.14-20.98-80.79-50.06-80.79-78.06,0-26.54,26.09-53.47,71.36-73.89ZM155.78,478.96c-22.96-13.27-33.34-49.29-28.26-98.76.32-3.37.74-6.77,1.2-10.22,26.23,7.9,53.09,13.54,80.29,16.85,16.49,21.93,34.82,42.41,54.8,61.22-43.74,33.79-83.7,44.94-107.97,30.92M441.5,380.2c5.02,49.49-5.3,85.49-28.28,98.76-24.25,14.05-64.23,2.87-107.95-30.92,19.97-18.81,38.29-39.29,54.78-61.22,27.2-3.31,54.06-8.94,80.29-16.85.48,3.45.88,6.85,1.22,10.22M461.19,334.02c-6.32-26.69-14.9-52.79-25.63-78.02,10.73-25.25,19.3-51.37,25.61-78.06,51.04,20.98,80.77,50.06,80.77,78.06s-29.65,57.08-80.79,78.06"/>
</svg>