<?xml version="1.0" encoding="UTF-8"?>
<svg id="Layer_1" xmlns="http://www.w3.org/2000/svg" version="1.1" xmlns:xlink="http://www.w3.org/1999/xlink" viewBox="0 0 54 33">
  <!-- Generator: Adobe Illustrator 29.7.1, SVG Export Plug-In . SVG Version: 2.1.1 Build 8)  -->
  <defs>
    <style>
      .st0 {
        fill: none;
      }

      .st1 {
        clip-path: url(#clippath);
      }

      .st2 {
        fill: #ffa100;
        fill-rule: evenodd;
      }
    </style>
    <clipPath id="clippath">
      <rect class="st0" width="54" height="32.4"/>
    </clipPath>
  </defs>
  <g class="st1">
    <path class="st2" d="M27,0c-7.2,0-11.7,3.6-13.5,10.8,2.7-3.6,5.85-4.95,9.45-4.05,2.05.51,3.52,2,5.15,3.65,2.65,2.69,5.71,5.8,12.4,5.8,7.2,0,11.7-3.6,13.5-10.8-2.7,3.6-5.85,4.95-9.45,4.05-2.05-.51-3.52-2-5.15-3.65-2.65-2.69-5.71-5.8-12.4-5.8ZM13.5,16.2c-7.2,0-11.7,3.6-13.5,10.8,2.7-3.6,5.85-4.95,9.45-4.05,2.05.51,3.52,2,5.15,3.65,2.65,2.69,5.71,5.8,12.4,5.8,7.2,0,11.7-3.6,13.5-10.8-2.7,3.6-5.85,4.95-9.45,4.05-2.05-.51-3.52-2-5.15-3.65-2.65-2.69-5.71-5.8-12.4-5.8Z"/>
  </g>
</svg>