<?xml version="1.0" encoding="UTF-8"?>
<svg id="Layer_1" xmlns="http://www.w3.org/2000/svg" version="1.1" viewBox="0 0 24 24">
  <!-- Generator: Adobe Illustrator 29.7.1, SVG Export Plug-In . SVG Version: 2.1.1 Build 8)  -->
  <defs>
    <style>
      .st0 {
        fill: #ffa100;
      }
    </style>
  </defs>
  <path class="st0" d="M.38,0C.23,0,.11.12.12.27c0,.02,0,.04,0,.06l2.89,11.72s0,.03,0,.04l2.89,11.71c.04.14.18.23.32.2.05-.01.09-.03.12-.07L23.8,7.15c.11-.1.11-.27,0-.38-.03-.03-.07-.06-.12-.07l-5.78-1.67s-.08-.03-.12-.03L6.38,1.72s-.09-.04-.14-.04L.46,0s-.05-.01-.08,0ZM.75.65l4.96,1.43-3.72,3.58L.75.65ZM6.61,2.34l4.86,1.4-3.65,3.52-1.21-4.92ZM6.09,2.46l1.22,4.93-4.88-1.4,3.66-3.53ZM12.37,4l4.88,1.4-3.66,3.53-1.22-4.93ZM11.85,4.13l1.21,4.9-4.85-1.39,3.65-3.51ZM18.15,5.66l4.95,1.42-3.72,3.57-1.23-5ZM17.62,5.78l1.22,4.93-4.88-1.4,3.66-3.53ZM2.19,6.48l4.96,1.42-3.73,3.59-1.24-5.01ZM8.05,8.15l4.88,1.4-3.66,3.53-1.22-4.93ZM7.53,8.29l1.24,5.02-4.96-1.43,3.73-3.59ZM13.8,9.82l4.97,1.43-3.73,3.59-1.24-5.01ZM13.28,9.95l1.23,5.01-4.96-1.43,3.72-3.58ZM3.65,12.39l4.87,1.41-3.66,3.52-1.22-4.93ZM9.51,14.07l4.86,1.4-3.65,3.51-1.22-4.91ZM8.97,14.11l1.21,4.93-4.88-1.4,3.66-3.53ZM5.07,18.13l5.04,1.44-3.78,3.64-1.26-5.08Z"/>
</svg>